<?xml version="1.0" encoding="UTF-8" standalone="no" ?>
<!DOCTYPE svg PUBLIC "-//W3C//DTD SVG 1.1//EN" "http://www.w3.org/Graphics/SVG/1.1/DTD/svg11.dtd">
<svg xmlns="http://www.w3.org/2000/svg" xmlns:xlink="http://www.w3.org/1999/xlink" version="1.1" width="1080" height="1080" viewBox="0 0 1080 1080" xml:space="preserve">
<desc>Created with Fabric.js 5.2.4</desc>
<defs>
</defs>
<g transform="matrix(1 0 0 1 540 540)" id="7f1a45a4-07ec-48c7-8b4f-2f8db530368d"  >
<rect style="stroke: none; stroke-width: 1; stroke-dasharray: none; stroke-linecap: butt; stroke-dashoffset: 0; stroke-linejoin: miter; stroke-miterlimit: 4; fill: rgb(255,255,255); fill-rule: nonzero; opacity: 1; visibility: hidden;" vector-effect="non-scaling-stroke"  x="-540" y="-540" rx="0" ry="0" width="1080" height="1080" />
</g>
<g transform="matrix(1 0 0 1 540 540)" id="72218098-e44a-48db-9e32-e1b105ac501e"  >
</g>
<g transform="matrix(1 0 0 1 540 540)"  >
<g style="" vector-effect="non-scaling-stroke"   >
		<g transform="matrix(1 0 0 1 -23.32 155.87)"  >
<path style="stroke: none; stroke-width: 1; stroke-dasharray: none; stroke-linecap: butt; stroke-dashoffset: 0; stroke-linejoin: miter; stroke-miterlimit: 4; fill: rgb(255,255,255); fill-rule: nonzero; opacity: 1;" vector-effect="non-scaling-stroke"  transform=" translate(-488.68, -667.87)" d="M 4.756 438.175 C 2.316611238815221 455.27216184872157 0.7293160072695066 472.48009753805866 -1.9895196601282805e-13 489.7350000000002 L 777.799 489.735 C 775.083 484.42900000000003 771.434 479.64500000000004 767.754 474.963 C 634.784 303.172 563.2560000000001 318.067 460.935 313.70300000000003 C 426.821 312.3 403.686 311.73600000000005 267.898 311.73600000000005 C 195.221 311.73600000000005 116.21000000000004 311.92100000000005 39.27000000000004 312.12600000000003 C 29.310000000000038 339.01000000000005 19.70400000000004 365.06800000000004 15.02700000000004 386.266 L 413.59800000000007 386.266 L 413.59800000000007 438.175 L 4.756 438.175 Z M 783.93 541.696 L 0.399 541.696 C 1.2189999999999999 555.547 2.511 569.2130000000001 4.377000000000001 582.695 L 727.7669999999999 582.695 C 760.015 582.695 778.0659999999999 564.398 783.929 541.696 Z M 45.017 724.306 C 45.017 724.306 164.941 1018.77 511.46 1024 C 718.572 1024 896.531 900.994 977.367 724.306 L 45.017 724.306 Z" stroke-linecap="round" />
</g>
		<g transform="matrix(1 0 0 1 8.35 -175.56)"  >
<path style="stroke: none; stroke-width: 1; stroke-dasharray: none; stroke-linecap: butt; stroke-dashoffset: 0; stroke-linejoin: miter; stroke-miterlimit: 4; fill: rgb(255,255,255); fill-rule: nonzero; opacity: 1;" vector-effect="non-scaling-stroke"  transform=" translate(-520.35, -336.44)" d="M 511.454 0 C 319.953 0 153.311 105.16 65.31 260.612 C 134.08100000000002 260.468 268.014 260.386 268.014 260.386 L 268.045 260.386 L 268.045 260.33500000000004 C 426.35400000000004 260.33500000000004 432.23800000000006 261.04200000000003 463.163 262.333 L 482.312 263.03900000000004 C 549.0120000000001 265.26300000000003 630.995 272.42300000000006 695.502 321.22900000000004 C 730.5169999999999 347.70000000000005 781.073 406.12500000000006 811.2099999999999 447.749 C 839.0709999999999 486.24800000000005 847.0859999999999 530.505 828.1429999999999 572.907 C 810.7069999999999 611.8770000000001 773.1909999999999 635.1220000000001 727.7599999999999 635.1220000000001 L 16.69 635.1220000000001 C 16.69 635.1220000000001 20.923000000000002 653.066 27.270000000000003 672.873 L 997.9019999999999 672.873 C 1015.1390707596688 621.0621374633082 1023.9504187605675 566.8209269075433 1024 512.2180000000001 C 1024.01 229.355 794.532 0 511.454 0 Z" stroke-linecap="round" />
</g>
</g>
</g>
</svg>